# MagicaVoxel @ Ephtracy

# group
o 

# material
mtllib Tile.mtl
usemtl palette

# normals
vn -1 0 0
vn 1 0 0
vn 0 0 1
vn 0 0 -1
vn 0 -1 0
vn 0 1 0

# texcoords
vt 0.537109 0.5
vt 0.888672 0.5
vt 0.892578 0.5

# verts
v -0.5 0 0.5
v -0.5 0 -0.5
v -0.5 0.3 0.2
v -0.5 0.3 0.1
v -0.5 0.4 -0.4
v -0.5 0.4 -0.5
v -0.5 0.5 0.5
v -0.5 0.5 0.4
v -0.5 0.5 0.3
v -0.5 0.5 0.2
v -0.5 0.5 0.1
v -0.5 0.5 0
v -0.5 0.5 -0.2
v -0.5 0.5 -0.3
v -0.5 0.6 0.4
v -0.5 0.6 0.3
v -0.5 0.6 0.1
v -0.5 0.6 0
v -0.5 0.6 -0.2
v -0.5 0.6 -0.3
v -0.5 0.6 -0.4
v -0.5 0.7 0.5
v -0.5 0.7 0.4
v -0.5 0.7 -0.1
v -0.5 0.7 -0.2
v -0.5 0.7 -0.4
v -0.5 0.7 -0.5
v -0.5 0.8 0.1
v -0.5 0.8 -0.1
v -0.5 0.9 0.5
v -0.5 0.9 0.4
v -0.5 0.9 -0.4
v -0.5 0.9 -0.5
v -0.5 1 0.5
v -0.5 1 0.4
v -0.5 1 -0.4
v -0.5 1 -0.5
v 0.5 0 0.5
v 0.5 0 -0.5
v 0.5 0.4 0.5
v 0.5 0.4 0.4
v 0.5 0.4 0
v 0.5 0.4 -0.1
v 0.5 0.5 0.4
v 0.5 0.5 0.3
v 0.5 0.5 0.1
v 0.5 0.5 0
v 0.5 0.5 -0.1
v 0.5 0.5 -0.2
v 0.5 0.5 -0.3
v 0.5 0.5 -0.5
v 0.5 0.6 0.4
v 0.5 0.6 0.3
v 0.5 0.6 0.2
v 0.5 0.6 0.1
v 0.5 0.6 -0.1
v 0.5 0.6 -0.2
v 0.5 0.6 -0.3
v 0.5 0.6 -0.4
v 0.5 0.7 0.5
v 0.5 0.7 0.4
v 0.5 0.7 0.3
v 0.5 0.7 0.2
v 0.5 0.7 0.1
v 0.5 0.7 -0.1
v 0.5 0.7 -0.4
v 0.5 0.7 -0.5
v 0.5 0.8 0.2
v 0.5 0.8 0.1
v 0.5 0.9 0.5
v 0.5 0.9 0.4
v 0.5 0.9 -0.4
v 0.5 0.9 -0.5
v 0.5 1 0.5
v 0.5 1 0.4
v 0.5 1 -0.4
v 0.5 1 -0.5
v -0.5 0 0.5
v -0.5 0.5 0.5
v -0.5 0.7 0.5
v -0.5 0.9 0.5
v -0.5 1 0.5
v -0.4 0.4 0.5
v -0.4 0.5 0.5
v -0.4 0.6 0.5
v -0.4 0.7 0.5
v -0.4 0.9 0.5
v -0.4 1 0.5
v -0.3 0.4 0.5
v -0.3 0.5 0.5
v -0.3 0.6 0.5
v -0.3 0.7 0.5
v -0.2 0.5 0.5
v -0.2 0.6 0.5
v -0.2 0.7 0.5
v 0 0.4 0.5
v 0 0.6 0.5
v 0 0.7 0.5
v 0.1 0.4 0.5
v 0.1 0.5 0.5
v 0.1 0.6 0.5
v 0.1 0.7 0.5
v 0.1 0.8 0.5
v 0.2 0.6 0.5
v 0.2 0.7 0.5
v 0.2 0.8 0.5
v 0.3 0.6 0.5
v 0.3 0.7 0.5
v 0.4 0.4 0.5
v 0.4 0.5 0.5
v 0.4 0.6 0.5
v 0.4 0.7 0.5
v 0.4 0.9 0.5
v 0.4 1 0.5
v 0.5 0 0.5
v 0.5 0.4 0.5
v 0.5 0.7 0.5
v 0.5 0.9 0.5
v 0.5 1 0.5
v -0.5 0 -0.5
v -0.5 0.4 -0.5
v -0.5 0.7 -0.5
v -0.5 0.9 -0.5
v -0.5 1 -0.5
v -0.4 0.4 -0.5
v -0.4 0.5 -0.5
v -0.4 0.6 -0.5
v -0.4 0.7 -0.5
v -0.4 0.9 -0.5
v -0.4 1 -0.5
v -0.3 0.5 -0.5
v -0.3 0.6 -0.5
v -0.1 0.5 -0.5
v -0.1 0.6 -0.5
v 0 0.4 -0.5
v 0 0.5 -0.5
v 0 0.6 -0.5
v 0 0.7 -0.5
v 0.1 0.4 -0.5
v 0.1 0.5 -0.5
v 0.1 0.6 -0.5
v 0.1 0.7 -0.5
v 0.2 0.4 -0.5
v 0.2 0.5 -0.5
v 0.2 0.6 -0.5
v 0.2 0.9 -0.5
v 0.2 1 -0.5
v 0.3 0.4 -0.5
v 0.3 0.5 -0.5
v 0.3 0.6 -0.5
v 0.4 0.6 -0.5
v 0.4 0.7 -0.5
v 0.5 0 -0.5
v 0.5 0.5 -0.5
v 0.5 0.7 -0.5
v 0.5 0.9 -0.5
v 0.5 1 -0.5
v -0.5 0 0.5
v 0.5 0 0.5
v -0.5 0 -0.5
v 0.5 0 -0.5
v -0.5 1 0.5
v -0.4 1 0.5
v 0.4 1 0.5
v 0.5 1 0.5
v -0.5 1 0.4
v -0.4 1 0.4
v -0.1 1 0.4
v 0.1 1 0.4
v 0.3 1 0.4
v 0.4 1 0.4
v 0.5 1 0.4
v -0.4 1 0.2
v -0.2 1 0.2
v 0.2 1 0.1
v 0.3 1 0.1
v 0.4 1 0.1
v -0.1 1 0
v 0.1 1 0
v -0.4 1 -0.3
v -0.2 1 -0.3
v 0.2 1 -0.3
v 0.3 1 -0.3
v -0.5 1 -0.4
v -0.4 1 -0.4
v 0.2 1 -0.4
v 0.5 1 -0.4
v -0.5 1 -0.5
v -0.4 1 -0.5
v 0.2 1 -0.5
v 0.5 1 -0.5

# faces
f 3/1/1 2/1/1 1/1/1
f 4/1/1 2/1/1 3/1/1
f 5/1/1 2/1/1 4/1/1
f 6/1/1 2/1/1 5/1/1
f 7/1/1 3/1/1 1/1/1
f 8/1/1 3/1/1 7/1/1
f 9/1/1 3/1/1 8/1/1
f 10/3/1 4/3/1 3/3/1
f 10/1/1 3/1/1 9/1/1
f 11/1/1 5/1/1 4/1/1
f 11/3/1 4/3/1 10/3/1
f 12/1/1 5/1/1 11/1/1
f 13/1/1 5/1/1 12/1/1
f 14/1/1 5/1/1 13/1/1
f 15/1/1 9/1/1 8/1/1
f 15/3/1 8/3/1 7/3/1
f 16/3/1 10/3/1 9/3/1
f 16/1/1 9/1/1 15/1/1
f 16/3/1 11/3/1 10/3/1
f 16/3/1 12/3/1 11/3/1
f 17/3/1 12/3/1 16/3/1
f 18/1/1 13/1/1 12/1/1
f 18/3/1 12/3/1 17/3/1
f 19/3/1 14/3/1 13/3/1
f 19/1/1 13/1/1 18/1/1
f 20/1/1 5/1/1 14/1/1
f 20/3/1 14/3/1 19/3/1
f 21/3/1 6/3/1 5/3/1
f 21/1/1 5/1/1 20/1/1
f 22/3/1 15/3/1 7/3/1
f 23/2/1 17/2/1 16/2/1
f 23/3/1 15/3/1 22/3/1
f 23/2/1 16/2/1 15/2/1
f 24/3/1 19/3/1 18/3/1
f 24/3/1 18/3/1 17/3/1
f 25/2/1 20/2/1 19/2/1
f 25/3/1 19/3/1 24/3/1
f 25/2/1 21/2/1 20/2/1
f 26/3/1 6/3/1 21/3/1
f 26/2/1 21/2/1 25/2/1
f 27/3/1 6/3/1 26/3/1
f 28/2/1 17/2/1 23/2/1
f 28/3/1 24/3/1 17/3/1
f 28/2/1 23/2/1 22/2/1
f 29/2/1 25/2/1 24/2/1
f 29/3/1 24/3/1 28/3/1
f 29/2/1 27/2/1 26/2/1
f 29/2/1 26/2/1 25/2/1
f 30/2/1 28/2/1 22/2/1
f 30/2/1 29/2/1 28/2/1
f 31/2/1 29/2/1 30/2/1
f 32/2/1 27/2/1 29/2/1
f 32/2/1 29/2/1 31/2/1
f 33/2/1 27/2/1 32/2/1
f 34/3/1 31/3/1 30/3/1
f 35/2/1 32/2/1 31/2/1
f 35/3/1 31/3/1 34/3/1
f 36/3/1 33/3/1 32/3/1
f 36/2/1 32/2/1 35/2/1
f 37/3/1 33/3/1 36/3/1
f 38/1/2 39/1/2 40/1/2
f 40/1/2 39/1/2 41/1/2
f 41/1/2 39/1/2 42/1/2
f 42/1/2 39/1/2 43/1/2
f 40/3/2 41/3/2 44/3/2
f 41/1/2 42/1/2 44/1/2
f 44/1/2 42/1/2 45/1/2
f 45/1/2 42/1/2 46/1/2
f 42/3/2 43/3/2 47/3/2
f 46/1/2 42/1/2 47/1/2
f 43/1/2 39/1/2 48/1/2
f 47/3/2 43/3/2 48/3/2
f 48/1/2 39/1/2 49/1/2
f 49/1/2 39/1/2 50/1/2
f 50/1/2 39/1/2 51/1/2
f 40/3/2 44/3/2 52/3/2
f 44/3/2 45/3/2 52/3/2
f 45/1/2 46/1/2 53/1/2
f 52/3/2 45/3/2 53/3/2
f 53/1/2 46/1/2 54/1/2
f 46/3/2 47/3/2 55/3/2
f 54/1/2 46/1/2 55/1/2
f 47/3/2 48/3/2 55/3/2
f 48/3/2 49/3/2 55/3/2
f 55/3/2 49/3/2 56/3/2
f 49/1/2 50/1/2 57/1/2
f 56/3/2 49/3/2 57/3/2
f 50/3/2 51/3/2 58/3/2
f 57/1/2 50/1/2 58/1/2
f 58/3/2 51/3/2 59/3/2
f 40/3/2 52/3/2 60/3/2
f 52/2/2 53/2/2 61/2/2
f 60/3/2 52/3/2 61/3/2
f 53/3/2 54/3/2 62/3/2
f 61/2/2 53/2/2 62/2/2
f 54/2/2 55/2/2 63/2/2
f 62/3/2 54/3/2 63/3/2
f 55/3/2 56/3/2 64/3/2
f 63/2/2 55/2/2 64/2/2
f 56/2/2 57/2/2 65/2/2
f 64/3/2 56/3/2 65/3/2
f 57/2/2 58/2/2 65/2/2
f 58/2/2 59/2/2 65/2/2
f 59/3/2 51/3/2 66/3/2
f 65/2/2 59/2/2 66/2/2
f 66/3/2 51/3/2 67/3/2
f 60/2/2 61/2/2 68/2/2
f 63/3/2 64/3/2 68/3/2
f 62/2/2 63/2/2 68/2/2
f 61/2/2 62/2/2 68/2/2
f 64/2/2 65/2/2 69/2/2
f 68/3/2 64/3/2 69/3/2
f 66/2/2 67/2/2 69/2/2
f 65/2/2 66/2/2 69/2/2
f 60/2/2 68/2/2 70/2/2
f 68/2/2 69/2/2 70/2/2
f 70/2/2 69/2/2 71/2/2
f 69/2/2 67/2/2 72/2/2
f 71/2/2 69/2/2 72/2/2
f 72/2/2 67/2/2 73/2/2
f 70/3/2 71/3/2 74/3/2
f 71/2/2 72/2/2 75/2/2
f 74/3/2 71/3/2 75/3/2
f 72/3/2 73/3/2 76/3/2
f 75/2/2 72/2/2 76/2/2
f 76/3/2 73/3/2 77/3/2
f 83/1/3 79/1/3 78/1/3
f 84/3/3 80/3/3 79/3/3
f 84/1/3 79/1/3 83/1/3
f 85/3/3 80/3/3 84/3/3
f 86/2/3 81/2/3 80/2/3
f 86/3/3 80/3/3 85/3/3
f 87/3/3 82/3/3 81/3/3
f 87/2/3 81/2/3 86/2/3
f 88/3/3 82/3/3 87/3/3
f 89/1/3 83/1/3 78/1/3
f 89/3/3 85/3/3 84/3/3
f 89/3/3 84/3/3 83/3/3
f 90/3/3 85/3/3 89/3/3
f 91/2/3 86/2/3 85/2/3
f 91/3/3 85/3/3 90/3/3
f 91/2/3 88/2/3 87/2/3
f 91/2/3 87/2/3 86/2/3
f 92/2/3 88/2/3 91/2/3
f 93/1/3 90/1/3 89/1/3
f 93/3/3 91/3/3 90/3/3
f 93/3/3 92/3/3 91/3/3
f 94/3/3 92/3/3 93/3/3
f 95/2/3 88/2/3 92/2/3
f 95/3/3 92/3/3 94/3/3
f 96/1/3 94/1/3 93/1/3
f 96/1/3 89/1/3 78/1/3
f 96/1/3 93/1/3 89/1/3
f 97/2/3 95/2/3 94/2/3
f 97/1/3 94/1/3 96/1/3
f 98/2/3 88/2/3 95/2/3
f 98/2/3 95/2/3 97/2/3
f 99/3/3 97/3/3 96/3/3
f 99/1/3 96/1/3 78/1/3
f 99/3/3 98/3/3 97/3/3
f 100/3/3 98/3/3 99/3/3
f 101/3/3 98/3/3 100/3/3
f 102/2/3 88/2/3 98/2/3
f 102/3/3 98/3/3 101/3/3
f 103/2/3 88/2/3 102/2/3
f 104/3/3 101/3/3 100/3/3
f 104/2/3 102/2/3 101/2/3
f 105/3/3 103/3/3 102/3/3
f 105/2/3 102/2/3 104/2/3
f 106/2/3 88/2/3 103/2/3
f 106/3/3 103/3/3 105/3/3
f 107/3/3 105/3/3 104/3/3
f 107/3/3 104/3/3 100/3/3
f 108/2/3 106/2/3 105/2/3
f 108/3/3 105/3/3 107/3/3
f 109/1/3 99/1/3 78/1/3
f 109/1/3 100/1/3 99/1/3
f 110/3/3 107/3/3 100/3/3
f 110/1/3 100/1/3 109/1/3
f 111/2/3 108/2/3 107/2/3
f 111/3/3 107/3/3 110/3/3
f 112/2/3 106/2/3 108/2/3
f 112/2/3 108/2/3 111/2/3
f 113/2/3 88/2/3 106/2/3
f 113/2/3 106/2/3 112/2/3
f 114/2/3 88/2/3 113/2/3
f 115/1/3 109/1/3 78/1/3
f 116/3/3 112/3/3 111/3/3
f 116/1/3 109/1/3 115/1/3
f 116/3/3 111/3/3 110/3/3
f 116/3/3 110/3/3 109/3/3
f 117/2/3 113/2/3 112/2/3
f 117/3/3 112/3/3 116/3/3
f 118/3/3 114/3/3 113/3/3
f 118/2/3 113/2/3 117/2/3
f 119/3/3 114/3/3 118/3/3
f 120/1/4 121/1/4 125/1/4
f 121/3/4 122/3/4 125/3/4
f 125/3/4 122/3/4 126/3/4
f 126/3/4 122/3/4 127/3/4
f 122/2/4 123/2/4 128/2/4
f 127/3/4 122/3/4 128/3/4
f 123/3/4 124/3/4 129/3/4
f 128/2/4 123/2/4 129/2/4
f 129/3/4 124/3/4 130/3/4
f 126/3/4 127/3/4 131/3/4
f 125/1/4 126/1/4 131/1/4
f 127/2/4 128/2/4 132/2/4
f 131/3/4 127/3/4 132/3/4
f 129/2/4 130/2/4 132/2/4
f 128/2/4 129/2/4 132/2/4
f 125/1/4 131/1/4 133/1/4
f 131/1/4 132/1/4 133/1/4
f 132/2/4 130/2/4 134/2/4
f 133/1/4 132/1/4 134/1/4
f 125/1/4 133/1/4 135/1/4
f 120/1/4 125/1/4 135/1/4
f 133/3/4 134/3/4 136/3/4
f 135/1/4 133/1/4 136/1/4
f 134/2/4 130/2/4 137/2/4
f 136/3/4 134/3/4 137/3/4
f 137/2/4 130/2/4 138/2/4
f 135/3/4 136/3/4 139/3/4
f 120/1/4 135/1/4 139/1/4
f 137/3/4 138/3/4 139/3/4
f 136/3/4 137/3/4 139/3/4
f 139/3/4 138/3/4 140/3/4
f 140/3/4 138/3/4 141/3/4
f 138/2/4 130/2/4 142/2/4
f 141/3/4 138/3/4 142/3/4
f 120/1/4 139/1/4 143/1/4
f 139/1/4 140/1/4 143/1/4
f 140/3/4 141/3/4 144/3/4
f 143/1/4 140/1/4 144/1/4
f 141/2/4 142/2/4 145/2/4
f 144/3/4 141/3/4 145/3/4
f 142/2/4 130/2/4 146/2/4
f 145/2/4 142/2/4 146/2/4
f 146/2/4 130/2/4 147/2/4
f 120/1/4 143/1/4 148/1/4
f 143/3/4 144/3/4 148/3/4
f 144/1/4 145/1/4 149/1/4
f 148/3/4 144/3/4 149/3/4
f 145/2/4 146/2/4 150/2/4
f 149/1/4 145/1/4 150/1/4
f 149/3/4 150/3/4 151/3/4
f 150/2/4 146/2/4 151/2/4
f 151/2/4 146/2/4 152/2/4
f 120/1/4 148/1/4 153/1/4
f 148/1/4 149/1/4 153/1/4
f 151/3/4 152/3/4 154/3/4
f 153/1/4 149/1/4 154/1/4
f 149/3/4 151/3/4 154/3/4
f 152/2/4 146/2/4 155/2/4
f 154/3/4 152/3/4 155/3/4
f 146/3/4 147/3/4 156/3/4
f 155/2/4 146/2/4 156/2/4
f 156/3/4 147/3/4 157/3/4
f 160/1/5 159/1/5 158/1/5
f 161/1/5 159/1/5 160/1/5
f 162/3/6 163/3/6 166/3/6
f 163/2/6 164/2/6 167/2/6
f 166/3/6 163/3/6 167/3/6
f 167/2/6 164/2/6 168/2/6
f 168/2/6 164/2/6 169/2/6
f 169/2/6 164/2/6 170/2/6
f 164/3/6 165/3/6 171/3/6
f 170/2/6 164/2/6 171/2/6
f 171/3/6 165/3/6 172/3/6
f 166/2/6 167/2/6 173/2/6
f 167/2/6 168/2/6 173/2/6
f 173/2/6 168/2/6 174/2/6
f 169/2/6 170/2/6 175/2/6
f 170/3/6 171/3/6 176/3/6
f 175/2/6 170/2/6 176/2/6
f 171/2/6 172/2/6 177/2/6
f 176/3/6 171/3/6 177/3/6
f 174/2/6 168/2/6 178/2/6
f 168/3/6 169/3/6 178/3/6
f 169/2/6 175/2/6 179/2/6
f 178/3/6 169/3/6 179/3/6
f 166/2/6 173/2/6 180/2/6
f 173/3/6 174/3/6 180/3/6
f 174/2/6 178/2/6 181/2/6
f 180/3/6 174/3/6 181/3/6
f 178/2/6 179/2/6 181/2/6
f 175/3/6 176/3/6 182/3/6
f 181/2/6 179/2/6 182/2/6
f 179/2/6 175/2/6 182/2/6
f 176/2/6 177/2/6 183/2/6
f 182/3/6 176/3/6 183/3/6
f 180/2/6 181/2/6 184/2/6
f 181/2/6 182/2/6 184/2/6
f 182/2/6 183/2/6 184/2/6
f 166/2/6 180/2/6 184/2/6
f 184/2/6 183/2/6 185/2/6
f 185/2/6 183/2/6 186/2/6
f 177/2/6 172/2/6 187/2/6
f 186/2/6 183/2/6 187/2/6
f 183/2/6 177/2/6 187/2/6
f 184/3/6 185/3/6 188/3/6
f 185/2/6 186/2/6 189/2/6
f 188/3/6 185/3/6 189/3/6
f 186/3/6 187/3/6 190/3/6
f 189/2/6 186/2/6 190/2/6
f 190/3/6 187/3/6 191/3/6
